<?xml version="1.0" standalone="no"?>
<!DOCTYPE svg PUBLIC "-//W3C//DTD SVG 20010904//EN"
 "http://www.w3.org/TR/2001/REC-SVG-20010904/DTD/svg10.dtd">
<svg version="1.0" xmlns="http://www.w3.org/2000/svg"
 width="256.000000pt" height="256.000000pt" viewBox="0 0 256.000000 256.000000"
 preserveAspectRatio="xMidYMid meet">
<metadata>
Created by potrace 1.14, written by Peter Selinger 2001-2017
</metadata>
<g transform="translate(0.000000,256.000000) scale(0.100000,-0.100000)"
fill="#000000" stroke="none">
<path d="M1553 2355 c0 -8 4 -12 9 -9 5 3 6 10 3 15 -9 13 -12 11 -12 -6z"/>
<path d="M1559 2325 c-1 -7 -1 -60 0 -87 1 -18 3 -20 10 -8 6 8 7 19 3 24 -3
6 -6 25 -5 43 0 18 -1 33 -3 33 -2 0 -4 -2 -5 -5z"/>
<path d="M1675 2320 c-3 -5 -1 -10 4 -10 6 0 11 5 11 10 0 6 -2 10 -4 10 -3 0
-8 -4 -11 -10z"/>
<path d="M1485 2289 c4 -5 1 -17 -7 -26 -7 -9 -8 -14 -2 -10 14 8 14 -87 0
-100 -5 -4 -6 -3 -2 4 3 6 1 15 -5 18 -6 4 -8 18 -5 31 6 24 6 24 -12 7 -14
-15 -15 -20 -5 -31 15 -16 8 -34 -12 -30 -8 2 -21 -6 -29 -17 l-16 -20 6 20
c6 20 5 20 -10 1 -14 -17 -16 -18 -16 -3 0 12 -6 16 -22 13 -13 -3 -27 -5 -31
-5 -5 -1 -6 -5 -2 -11 3 -5 13 -7 23 -4 13 5 14 4 4 -4 -8 -5 -13 -13 -12 -18
1 -5 -3 -10 -9 -12 -6 -2 -11 1 -11 8 0 6 5 8 12 4 7 -5 8 -3 3 6 -6 10 -11 9
-21 -5 -12 -16 -13 -15 -10 13 4 26 1 30 -15 27 -10 -2 -22 2 -26 8 -17 26
-41 39 -49 26 -4 -7 -3 -9 3 -6 11 7 40 -20 36 -32 -2 -3 6 -6 17 -6 10 0 23
-5 27 -9 5 -5 2 -6 -6 -1 -11 6 -13 4 -7 -10 6 -16 4 -16 -10 -4 -16 13 -16
12 -5 -8 6 -13 16 -23 21 -23 6 0 10 -5 10 -11 0 -5 -5 -7 -12 -3 -7 5 -9 2
-5 -9 4 -12 2 -14 -10 -10 -12 5 -14 3 -8 -8 7 -12 6 -12 -7 -1 -14 11 -17 10
-23 -9 -5 -15 -9 -18 -15 -9 -4 7 -13 9 -20 5 -9 -6 -11 -4 -5 5 6 10 4 12 -8
7 -9 -3 -19 -1 -23 5 -4 7 -3 8 4 4 18 -11 14 9 -3 24 -13 11 -14 10 -9 -5 5
-13 4 -16 -4 -11 -8 4 -10 2 -6 -7 3 -8 16 -20 30 -27 13 -7 24 -17 24 -22 0
-5 -4 -7 -9 -3 -5 3 -13 0 -17 -6 -4 -8 -3 -9 4 -5 7 4 12 2 12 -5 0 -8 5 -7
17 2 15 13 15 12 2 -9 -8 -12 -15 -18 -17 -12 -2 5 -10 10 -18 10 -8 0 -14 5
-14 11 0 5 -4 8 -9 5 -5 -3 -7 -15 -4 -26 5 -17 8 -18 22 -8 14 11 14 11 4 -3
-7 -9 -10 -18 -7 -22 8 -8 -18 -3 -32 6 -7 4 -15 0 -18 -8 -7 -18 -4 -31 6
-28 10 4 31 -37 24 -45 -3 -3 -6 0 -6 7 0 7 -4 10 -9 6 -6 -3 -19 4 -30 16
-17 18 -21 19 -26 7 -3 -8 -12 -15 -20 -15 -18 0 -20 14 -2 20 6 2 -10 3 -37
3 -34 -1 -51 3 -54 13 -3 9 0 11 8 6 9 -6 11 -4 6 4 -6 9 -13 8 -27 -5 -18
-16 -43 -23 -91 -25 -10 0 -21 -5 -24 -11 -5 -7 -2 -8 6 -3 8 5 11 4 6 -3 -3
-6 -22 -8 -42 -6 -34 4 -71 -8 -87 -30 -6 -7 -7 -4 -3 6 7 24 -19 12 -39 -18
-14 -22 -54 -36 -40 -14 4 6 10 8 15 5 5 -3 11 -1 15 4 3 6 -4 8 -16 6 -24 -5
-41 -24 -33 -37 3 -4 -6 -4 -20 1 -19 8 -27 6 -38 -7 -11 -15 -11 -15 3 -5 13
10 16 10 16 -1 0 -15 -45 -12 -61 4 -5 5 -18 5 -30 -2 l-21 -11 20 24 20 24
-22 -19 c-13 -11 -23 -26 -23 -34 0 -9 -6 -12 -16 -8 -10 4 -13 2 -8 -6 5 -8
1 -9 -12 -5 -18 7 -18 6 -2 -7 25 -19 22 -29 -3 -15 -15 8 -19 8 -15 0 4 -6 2
-11 -4 -11 -6 0 -9 -4 -6 -8 11 -19 -35 -8 -58 13 -14 13 -26 19 -26 13 0 -5
-7 -7 -16 -4 -8 3 -12 2 -9 -4 3 -6 1 -10 -5 -10 -6 0 -9 -4 -6 -8 3 -5 -8 -8
-25 -8 -23 0 -28 3 -24 15 3 11 0 9 -10 -3 -8 -11 -15 -14 -15 -7 0 7 -9 11
-22 9 -15 -2 -22 2 -20 10 1 8 -2 11 -8 7 -6 -3 -8 -10 -5 -15 3 -4 -2 -10 -9
-13 -10 -4 -13 0 -11 14 2 11 0 17 -6 14 -5 -4 -7 -11 -4 -16 4 -5 1 -9 -4 -9
-6 0 -10 -3 -10 -7 3 -21 -3 -24 -19 -12 -13 10 -12 8 3 -10 15 -19 16 -23 4
-19 -9 4 -16 1 -16 -8 0 -7 5 -10 11 -7 6 4 5 0 -1 -9 -7 -8 -9 -19 -5 -23 4
-5 -1 -5 -10 -2 -12 4 -15 2 -11 -8 3 -8 8 -13 12 -10 10 5 8 -42 -2 -51 -10
-10 -9 -26 2 -20 5 3 11 -3 14 -13 3 -15 1 -18 -11 -13 -14 5 -13 2 1 -18 18
-27 22 -45 8 -36 -8 5 -8 -22 -1 -31 2 -2 3 -7 4 -12 0 -5 5 -13 10 -18 5 -5
6 -2 1 6 -6 10 -4 12 4 7 7 -5 10 -14 7 -21 -2 -7 4 -15 15 -18 10 -3 19 -12
19 -21 0 -9 7 -16 16 -16 9 0 12 -5 8 -12 -5 -9 -2 -9 9 1 11 8 17 9 17 3 0
-6 6 -9 13 -6 8 3 20 -2 27 -11 7 -8 20 -15 29 -16 12 0 11 -2 -4 -8 -11 -5
-23 -7 -27 -4 -5 2 -8 -1 -8 -8 0 -8 -3 -9 -13 0 -11 8 -18 6 -33 -11 -10 -12
-14 -18 -7 -15 6 4 14 3 18 -3 3 -5 0 -10 -8 -10 -7 0 -14 -7 -14 -15 0 -8 4
-12 8 -9 4 2 10 0 14 -6 3 -5 -1 -10 -9 -10 -9 0 -16 -4 -16 -9 0 -6 9 -8 21
-6 17 4 19 2 9 -10 -10 -12 -10 -15 0 -15 7 0 10 -7 7 -15 -4 -8 -1 -17 5 -21
7 -5 8 -2 3 6 -5 9 -4 11 3 6 7 -4 12 -12 12 -18 0 -16 32 -37 58 -38 12 0 22
-5 22 -12 0 -6 7 -3 15 8 15 19 15 19 8 -1 -6 -17 -4 -18 9 -8 18 16 32 5 17
-14 -14 -16 -5 -17 21 -3 16 9 18 7 15 -10 -2 -11 -7 -25 -11 -32 -4 -6 -3 -8
3 -5 6 4 14 0 17 -9 3 -8 2 -13 -3 -10 -5 3 -8 -5 -8 -19 -1 -14 3 -22 7 -20
4 3 10 -2 14 -10 3 -8 15 -15 26 -15 11 0 20 -6 20 -12 0 -9 4 -8 10 2 8 12
10 12 10 1 0 -9 8 -12 25 -9 14 3 28 1 32 -5 4 -6 12 -3 20 8 7 11 13 13 13 6
0 -7 5 -9 12 -4 7 4 26 8 41 9 25 2 27 1 15 -14 -10 -12 -10 -14 0 -8 22 13
54 -4 49 -26 -3 -11 -3 -17 0 -14 4 3 12 1 19 -5 8 -6 31 -12 53 -12 21 -1 37
-5 35 -9 -2 -4 10 -6 27 -6 17 1 35 -5 40 -13 7 -12 9 -12 9 0 0 10 9 12 35 8
26 -4 34 -3 28 6 -4 8 -2 8 9 -1 9 -7 20 -12 24 -11 22 4 32 -3 38 -25 9 -36
43 -39 77 -7 16 15 25 31 21 35 -4 4 23 6 59 5 36 -1 72 2 80 6 20 13 55 11
73 -4 11 -9 16 -10 16 -2 0 9 5 9 20 1 15 -8 20 -8 20 1 0 8 5 7 17 -2 9 -8
14 -9 10 -3 -4 7 0 15 9 18 12 5 15 2 10 -10 -5 -13 -3 -14 6 -7 14 10 37 12
39 3 1 -3 -8 -24 -20 -47 -18 -37 -29 -93 -17 -93 2 0 12 -3 20 -6 24 -9 49
58 41 109 -5 28 -4 38 4 33 6 -4 11 -1 12 6 0 7 4 4 9 -7 7 -17 9 -17 9 -3 1
19 21 20 33 3 5 -6 8 -3 8 6 0 24 30 19 36 -7 9 -36 42 -37 60 -2 14 27 17 29
33 14 13 -12 20 -13 29 -4 7 7 12 8 12 4 0 -5 6 -3 14 3 11 9 16 9 22 0 5 -8
3 -9 -6 -4 -9 5 -11 4 -6 -4 6 -9 11 -9 21 -1 25 21 26 -8 2 -66 -29 -67 -25
-89 14 -103 58 -20 84 40 58 133 -11 39 0 71 16 45 6 -8 4 -10 -5 -4 -9 5 -11
4 -6 -4 6 -9 11 -9 22 0 8 6 14 8 14 4 0 -4 6 -2 14 4 10 8 16 9 21 1 3 -5 1
-10 -6 -10 -7 0 -9 -3 -6 -6 4 -4 12 -2 19 3 17 13 45 9 67 -11 23 -21 23 -20
55 9 30 28 66 25 44 -4 -10 -13 -9 -13 8 1 16 14 23 15 33 5 10 -9 11 -9 6 5
-5 11 -2 16 9 14 8 -1 19 -5 22 -9 12 -12 26 -8 18 5 -4 7 -3 8 4 4 17 -10 15
-38 -8 -87 -27 -59 -25 -83 5 -97 22 -10 28 -9 46 9 18 18 20 29 15 63 -9 62
-11 70 -19 82 -8 14 1 24 17 18 6 -2 28 -6 49 -7 30 -3 34 -1 25 10 -10 12 -7
12 16 2 22 -10 29 -10 36 0 6 11 9 11 13 0 4 -11 6 -11 6 0 1 11 5 10 16 -5
15 -19 15 -19 8 0 -5 16 -3 18 11 13 10 -4 15 -3 11 3 -9 14 8 12 24 -2 11
-11 12 -10 6 1 -6 10 -2 11 15 6 15 -5 20 -4 16 3 -4 7 1 9 14 7 11 -2 23 1
26 7 5 7 2 8 -6 3 -9 -6 -11 -4 -6 4 5 7 14 10 22 7 11 -4 12 -1 5 13 -7 12
-6 22 1 29 9 9 9 12 -1 12 -8 0 -11 6 -7 15 4 10 -1 15 -15 15 -11 0 -17 5
-14 10 3 6 1 10 -5 10 -6 0 -8 5 -5 10 3 6 -1 10 -9 10 -8 0 -18 9 -21 21 -4
11 -18 24 -32 30 -18 7 -24 15 -20 29 3 11 2 19 -2 18 -20 -2 -21 4 -4 20 10
9 14 14 7 9 -15 -10 -26 16 -28 66 -1 26 2 36 11 32 23 -8 14 4 -14 20 -16 9
-21 14 -12 12 9 -3 16 1 16 8 0 7 -8 10 -21 7 -21 -4 -21 -4 -1 12 13 11 15
14 4 11 -10 -4 -16 0 -16 9 0 8 3 13 7 11 4 -2 7 2 7 10 0 8 -4 12 -8 10 -4
-3 -17 3 -29 13 -18 15 -19 19 -7 19 9 0 14 -3 12 -7 -2 -3 6 -7 17 -7 20 -2
20 -1 2 12 -11 8 -27 15 -36 15 -10 0 -18 5 -18 11 0 5 -4 8 -9 5 -5 -3 -14 1
-21 9 -6 7 -17 12 -25 9 -7 -3 -16 0 -20 5 -3 6 -10 9 -15 6 -4 -3 -6 8 -4 25
4 24 2 30 -13 30 -20 0 -43 18 -43 34 0 5 6 1 14 -10 8 -10 18 -16 22 -11 4 4
2 7 -4 7 -7 0 -12 5 -12 10 0 6 13 8 29 5 22 -4 29 -1 27 10 -3 19 -16 32 -16
16 0 -7 -11 0 -25 15 -26 28 -32 40 -16 30 5 -4 11 -3 14 1 2 5 2 3 1 -4 -2
-7 3 -10 11 -6 8 3 13 9 10 13 -3 5 0 12 6 16 8 4 9 3 5 -4 -4 -7 -2 -12 3
-12 6 0 11 4 11 8 0 4 23 6 52 5 76 -5 53 6 -28 12 -84 7 -106 22 -30 21 42
-1 52 2 44 11 -7 9 -16 10 -29 2 -13 -7 -19 -6 -19 1 0 6 -4 9 -9 6 -16 -10
-40 5 -38 24 1 10 4 17 8 15 3 -3 11 7 17 20 7 14 18 26 27 26 17 2 34 5 38 9
2 2 32 7 75 12 6 1 10 4 7 7 -9 8 -84 8 -79 0 2 -4 -5 -7 -16 -6 -25 2 -25 6
-2 23 14 11 12 12 -15 2 -18 -7 -28 -15 -22 -19 7 -4 5 -8 -5 -12 -9 -4 -15
-1 -13 5 1 7 -3 12 -10 13 -20 0 -25 13 -13 32 9 16 10 15 4 -7 -4 -17 -3 -22
4 -15 5 6 12 19 14 30 2 12 10 19 21 17 9 -2 17 2 17 8 0 6 4 9 9 5 5 -3 12
-1 16 5 3 5 -2 10 -13 10 -10 0 -22 3 -26 7 -3 4 -12 8 -19 9 -7 1 -21 5 -32
9 -13 4 -12 1 5 -8 14 -9 28 -13 32 -11 15 9 8 -4 -9 -17 -11 -10 -14 -10 -9
-1 7 11 3 13 -34 16 -9 1 -14 9 -12 20 2 10 -1 15 -7 12 -5 -4 -12 -2 -15 3
-9 14 22 34 40 27 15 -6 15 -4 3 11 -12 15 -12 16 3 10 12 -4 19 0 23 14 4 10
10 17 15 14 4 -3 14 3 21 13 12 15 12 16 -2 5 -12 -10 -18 -10 -29 0 -8 7 -11
8 -7 1 7 -12 -13 -34 -35 -38 -7 -1 -22 -7 -34 -13 -17 -10 -20 -9 -19 5 1 24
14 42 28 42 7 0 6 -4 -3 -11 -13 -9 -13 -10 0 -6 8 2 15 10 15 18 1 8 7 13 15
11 12 -3 12 -1 3 9 -9 9 -19 6 -43 -11 -17 -12 -34 -19 -37 -16 -4 3 -1 6 5 6
7 0 12 11 12 25 0 15 5 24 13 23 6 -2 11 3 9 10 -1 6 2 12 8 12 5 0 10 5 10
10 0 6 -3 9 -7 9 -5 -1 -10 0 -13 1 -22 8 -39 6 -44 -6 -6 -14 15 -15 25 -1 3
5 8 0 11 -10 4 -14 0 -19 -13 -18 -10 1 -21 4 -25 7 -12 12 -33 -4 -26 -20 5
-14 4 -15 -10 -2 -17 16 -14 30 6 30 7 0 13 6 13 13 0 20 34 67 44 61 5 -3 6
2 3 11 -6 14 -9 13 -21 -5 -11 -16 -18 -18 -28 -10 -9 8 -14 6 -19 -5 -4 -12
-10 -13 -25 -6 -10 6 -21 7 -25 4 -3 -3 -6 -1 -6 5 0 7 -15 21 -32 32 -23 14
-27 19 -13 17 11 -1 25 -6 32 -10 6 -4 15 -2 19 4 4 7 3 9 -4 5 -6 -3 -14 -1
-18 5 -3 6 0 15 7 20 8 5 10 9 5 9 -5 0 -2 8 5 18 12 15 12 16 -2 5 -12 -10
-18 -10 -29 0 -12 10 -12 9 -2 -4 18 -24 5 -51 -18 -39 -16 9 -18 6 -13 -23 4
-30 4 -31 -10 -12 -8 10 -13 26 -10 35 4 13 4 13 -6 0 -7 -10 -11 -11 -11 -2
0 6 -4 12 -8 12 -5 0 -9 -7 -9 -15 0 -8 4 -12 8 -10 9 6 34 -24 25 -32 -3 -3
-6 -2 -6 4 0 6 -12 14 -27 18 -21 5 -24 8 -12 16 7 5 11 9 6 9 -4 0 -1 15 7
34 10 25 11 37 3 45 -15 15 -27 14 -27 -2 0 -23 -22 -38 -38 -25 -16 14 -34
-6 -25 -29 3 -7 0 -13 -6 -13 -15 0 -14 43 1 58 8 8 17 8 30 1 17 -9 18 -8 9
9 -6 11 -7 23 -3 28 4 5 -5 -1 -19 -14 -14 -12 -29 -19 -34 -15 -4 5 -5 2 -1
-5 4 -7 1 -15 -9 -18 -12 -5 -13 -9 -4 -20 7 -8 9 -17 5 -21 -3 -3 -6 -1 -6 6
0 7 -4 10 -9 6 -6 -3 -8 3 -6 15 2 11 0 22 -6 25 -9 6 -13 -8 -9 -34 1 -11 -2
-10 -15 3 -20 20 -29 21 -22 1 4 -8 3 -16 -2 -19 -6 -4 -11 28 -14 91 0 7 -3
10 -6 8 -4 -2 -6 -24 -6 -48 1 -25 -2 -44 -6 -41 -4 2 -10 -2 -12 -8 -4 -10
-6 -9 -6 1 -1 10 -4 11 -15 2 -11 -9 -16 -9 -22 0 -4 8 -3 9 4 5 7 -4 12 -2
12 4 0 7 7 9 16 6 8 -3 13 -2 9 3 -3 5 1 12 7 15 7 3 0 2 -17 -1 -28 -6 -29
-5 -15 13 14 18 14 18 -6 2 -11 -10 -23 -18 -27 -18 -3 0 -8 8 -10 18 -4 14
-11 -28 -8 -50 1 -8 -26 -4 -36 6 -4 4 -2 6 6 4 7 -1 16 3 18 10 3 6 -2 12
-11 12 -9 0 -16 4 -16 10 0 5 6 8 13 6 6 -1 9 -1 4 1 -4 3 -5 9 -1 14 3 5 -2
12 -11 15 -11 5 -13 10 -5 19 8 9 6 14 -5 19 -10 3 -13 2 -10 -5z m350 -82
c-14 -8 -15 -11 -4 -19 12 -7 11 -9 -1 -7 -30 3 -41 -1 -34 -13 4 -7 3 -10 -1
-5 -5 4 -10 17 -12 29 -3 17 -1 19 11 9 11 -10 18 -7 33 13 10 13 20 19 22 14
2 -6 -4 -15 -14 -21z m135 -129 c0 -4 5 -8 11 -8 5 0 7 5 3 12 -4 7 -3 8 4 4
6 -4 9 -13 5 -22 -3 -9 -9 -11 -17 -5 -6 5 -15 10 -21 11 -5 0 -9 11 -7 23 2
16 0 18 -6 8 -6 -8 -12 -9 -16 -3 -10 17 18 21 32 4 6 -9 12 -19 12 -24z m74
-3 c-4 -8 -10 -15 -16 -15 -5 0 -6 -4 -3 -10 3 -6 -1 -7 -10 -4 -14 6 -14 8 2
25 22 22 34 24 27 4z m-894 -177 c0 -5 -8 -4 -19 1 -10 6 -22 7 -26 3 -5 -4
-5 -2 -2 5 8 13 47 6 47 -9z m-129 -24 c19 -14 38 -12 50 6 8 11 9 9 4 -9 -4
-14 -3 -21 2 -18 16 10 44 -16 34 -32 -7 -11 -10 -9 -16 8 -3 12 -11 19 -16
15 -6 -3 -5 -12 3 -21 12 -15 11 -15 -9 -2 -16 9 -19 16 -10 21 7 5 2 8 -14 8
-15 0 -29 7 -32 15 -4 8 -15 12 -27 10 -11 -2 -18 0 -15 5 6 10 28 8 46 -6z
m1149 -63 c0 -6 -4 -12 -8 -15 -5 -3 -9 1 -9 9 0 8 4 15 9 15 4 0 8 -4 8 -9z
m60 -453 c0 -7 -5 -6 -13 1 -8 6 -18 7 -22 3 -5 -4 -5 -2 -1 5 8 14 36 6 36
-9z m35 2 c3 -5 2 -10 -4 -10 -5 0 -13 5 -16 10 -3 6 -2 10 4 10 5 0 13 -4 16
-10z"/>
<path d="M1672 2255 c-2 -28 2 -45 9 -45 6 0 9 9 6 20 -3 11 -1 20 4 20 6 0 6
7 0 19 -6 10 -7 21 -4 25 3 3 2 6 -4 6 -5 0 -11 -20 -11 -45z"/>
<path d="M1856 2285 c4 -8 11 -15 16 -15 6 0 5 6 -2 15 -7 8 -14 15 -16 15 -2
0 -1 -7 2 -15z"/>
<path d="M1710 2260 c0 -5 5 -10 11 -10 5 0 7 5 4 10 -3 6 -8 10 -11 10 -2 0
-4 -4 -4 -10z"/>
<path d="M1613 2245 c0 -8 4 -12 9 -9 5 3 6 10 3 15 -9 13 -12 11 -12 -6z"/>
<path d="M1427 2224 c6 -15 23 -19 23 -5 0 5 -7 11 -14 14 -10 4 -13 1 -9 -9z"/>
<path d="M1313 2212 c1 -12 5 -22 10 -22 4 0 5 -5 2 -10 -4 -6 -10 -8 -15 -5
-5 3 -12 0 -16 -6 -4 -8 -3 -9 4 -5 7 4 12 3 12 -3 0 -5 9 -9 20 -8 25 2 25 8
0 49 -16 26 -19 28 -17 10z"/>
<path d="M1370 2185 c-12 -14 -6 -35 10 -35 6 0 9 11 8 25 -3 29 -2 29 -18 10z"/>
<path d="M1414 2183 c4 -7 2 -13 -3 -13 -6 0 -11 -5 -11 -12 0 -9 3 -9 11 -1
6 6 19 9 28 6 17 -7 16 -5 -13 17 -13 10 -17 10 -12 3z"/>
<path d="M2114 2148 l-19 -23 23 19 c21 18 27 26 19 26 -2 0 -12 -10 -23 -22z"/>
<path d="M1989 2123 c-13 -16 -12 -17 4 -4 9 7 17 15 17 17 0 8 -8 3 -21 -13z"/>
<path d="M2030 2136 c0 -2 8 -10 18 -17 15 -13 16 -12 3 4 -13 16 -21 21 -21
13z"/>
<path d="M1109 2096 c7 -8 9 -21 5 -27 -4 -8 -3 -9 4 -5 17 10 15 33 -4 40
-14 5 -15 4 -5 -8z"/>
<path d="M1225 2100 c-3 -5 -10 -8 -14 -6 -4 3 -8 -1 -8 -9 0 -20 13 -19 21 1
3 8 10 13 16 9 5 -3 2 -14 -7 -25 -13 -15 -21 -17 -36 -9 -10 6 -16 17 -13 24
3 9 0 12 -9 9 -12 -5 -12 -9 1 -29 19 -30 41 -38 48 -19 3 9 10 13 15 10 5 -3
14 0 20 8 8 10 6 17 -8 30 -13 12 -21 14 -26 6z"/>
<path d="M2100 2076 c0 -2 7 -7 16 -10 8 -3 12 -2 9 4 -6 10 -25 14 -25 6z"/>
<path d="M1075 2020 c3 -5 8 -10 11 -10 2 0 4 5 4 10 0 6 -5 10 -11 10 -5 0
-7 -4 -4 -10z"/>
<path d="M2136 2013 c-6 -14 -5 -15 5 -6 7 7 10 15 7 18 -3 3 -9 -2 -12 -12z"/>
<path d="M2163 2005 c0 -7 6 -11 14 -8 7 3 13 6 13 8 0 2 -6 5 -13 8 -8 3 -14
-1 -14 -8z"/>
<path d="M1083 1994 c-17 -14 -17 -15 3 -5 14 7 24 7 31 0 7 -7 12 -6 16 3 7
19 -27 20 -50 2z"/>
<path d="M1038 1973 c7 -3 16 -2 19 1 4 3 -2 6 -13 5 -11 0 -14 -3 -6 -6z"/>
<path d="M1098 1973 c20 -8 13 -25 -8 -18 -12 4 -20 2 -20 -5 0 -6 5 -8 10 -5
6 3 10 1 10 -6 0 -8 4 -9 13 0 10 8 17 7 26 -2 10 -9 11 -8 5 8 -8 22 -23 35
-39 34 -5 0 -4 -3 3 -6z"/>
<path d="M916 1913 c-6 -14 -5 -15 5 -6 7 7 10 15 7 18 -3 3 -9 -2 -12 -12z"/>
<path d="M797 1893 c-10 -9 -9 -23 1 -23 5 0 9 7 9 15 0 17 -1 18 -10 8z"/>
<path d="M2126 1882 c-3 -5 1 -9 9 -9 8 0 15 4 15 9 0 4 -4 8 -9 8 -6 0 -12
-4 -15 -8z"/>
<path d="M2210 1866 c0 -2 8 -10 18 -17 15 -13 16 -12 3 4 -13 16 -21 21 -21
13z"/>
<path d="M515 1790 c-3 -5 -1 -10 4 -10 6 0 11 5 11 10 0 6 -2 10 -4 10 -3 0
-8 -4 -11 -10z"/>
<path d="M2200 1781 c0 -6 4 -13 10 -16 6 -3 7 1 4 9 -7 18 -14 21 -14 7z"/>
<path d="M235 1719 c-10 -15 3 -25 16 -12 7 7 7 13 1 17 -6 3 -14 1 -17 -5z"/>
<path d="M341 1723 c-1 -17 19 -27 31 -15 6 6 6 12 -3 17 -8 5 -10 4 -5 -3 4
-7 3 -12 -3 -12 -5 0 -12 6 -14 13 -4 9 -6 9 -6 0z"/>
<path d="M2218 1693 c6 -3 9 -10 5 -16 -5 -9 -3 -9 8 0 8 6 17 11 21 10 3 -1
9 0 11 3 3 3 -9 6 -26 6 -18 1 -26 -1 -19 -3z"/>
<path d="M2191 1656 c-9 -11 -9 -16 0 -22 7 -4 9 -3 5 4 -3 5 0 12 6 15 7 2
10 7 7 11 -3 4 -12 0 -18 -8z"/>
<path d="M2215 1540 c-4 -6 -12 -7 -18 -4 -7 4 -9 3 -4 -1 13 -15 46 -13 40 2
-6 16 -10 16 -18 3z"/>
<path d="M2273 1525 c0 -8 4 -12 9 -9 5 3 6 10 3 15 -9 13 -12 11 -12 -6z"/>
<path d="M2236 1501 c-4 -6 -2 -11 5 -11 8 0 8 -5 -2 -17 -13 -17 -12 -17 6
-3 22 17 43 19 65 5 12 -7 13 -6 3 6 -7 9 -23 15 -35 14 -13 -1 -26 2 -29 8
-4 5 -9 5 -13 -2z"/>
<path d="M2227 1422 c5 -11 3 -13 -8 -7 -12 8 -12 6 0 -9 8 -9 21 -14 28 -11
8 2 24 0 36 -6 20 -9 21 -9 4 4 -10 8 -14 17 -10 19 10 6 -5 2 -32 -7 -19 -6
-19 -6 -2 8 17 14 17 15 -2 20 -15 3 -18 1 -14 -11z"/>
<path d="M2307 1409 c7 -7 15 -10 18 -7 3 3 -2 9 -12 12 -14 6 -15 5 -6 -5z"/>
<path d="M2360 1360 c8 -5 20 -10 25 -10 6 0 3 5 -5 10 -8 5 -19 10 -25 10 -5
0 -3 -5 5 -10z"/>
<path d="M192 1278 c2 -6 12 -12 22 -14 14 -2 15 0 5 12 -14 17 -32 19 -27 2z"/>
<path d="M1237 789 c7 -7 15 -10 18 -7 3 3 -2 9 -12 12 -14 6 -15 5 -6 -5z"/>
<path d="M853 634 c3 -6 -7 -38 -22 -71 -16 -33 -26 -65 -22 -70 13 -20 39
-21 56 -2 14 15 17 30 12 75 -3 31 -11 62 -18 68 -8 8 -10 8 -6 0z"/>
<path d="M1142 568 c-33 -74 -31 -98 8 -98 33 0 43 26 37 96 -3 37 -7 68 -9
70 -2 1 -18 -29 -36 -68z"/>
<path d="M1947 405 c-21 -45 -21 -69 -1 -86 14 -11 18 -10 30 6 16 21 17 37 8
84 -8 40 -16 39 -37 -4z"/>
<path d="M1545 363 c-35 -64 -41 -96 -20 -116 9 -10 23 -17 30 -17 19 0 44 27
51 56 7 27 -14 124 -26 124 -5 0 -20 -21 -35 -47z"/>
<path d="M759 269 c-37 -63 -39 -74 -23 -98 19 -26 29 -26 54 -1 23 23 26 70
7 114 l-13 30 -25 -45z"/>
<path d="M266 222 c-20 -38 -20 -66 -2 -81 11 -9 18 -8 30 4 19 20 20 51 2 84
l-14 25 -16 -32z"/>
<path d="M1180 203 c0 -10 -14 -47 -30 -81 -38 -80 -39 -108 -5 -115 43 -8 68
22 68 79 -1 48 -19 134 -28 134 -3 0 -5 -8 -5 -17z"/>
</g>
</svg>
